<svg xmlns="http://www.w3.org/2000/svg" viewBox="0 0 386.16 154.16">
  <defs>
    <style>
      .cls-1{fill:#210b00}.cls-2{fill:#fc0}
    </style>
  </defs>
  <g id="Layer_2" data-name="Layer 2">
    <g id="Livello_1" data-name="Livello 1">
      <path class="cls-1" d="M0 92.75V46.47h81c11.11 0 18.19 6.68 18.19 17.06 0 10.84-7.08 17.65-18.19 17.65H11.24l.13 11.57zm81-21.22c4 0 6.35-2.51 6.35-7.87 0-5.09-2.24-7.54-6.35-7.54H11.24v15.41z"/>
      <path class="cls-1" d="M141.88 45.28c17.73 0 26.78 8.26 26.78 24.33s-9 24.33-26.78 24.33h-8.59c-17.72 0-26.78-8.26-26.78-24.33s9.06-24.33 26.78-24.33zm-2 39.08c11.17-.07 17.06-5 17.06-14.75s-5.89-14.74-17.06-14.74h-4.63c-11.17 0-17.05 5-17.05 14.74s5.88 14.68 17.05 14.75z"/>
      <path class="cls-1" d="M278.46 92.75h-11.11l-76.83-35.11v35.11h-11.24V46.47h11l76.89 35.24V46.47h11.25z"/>
      <path class="cls-1" d="M304.3 56.06h-17.85v-9.59h46.94v9.59h-17.85v36.69H304.3z"/>
      <path class="cls-1" d="M352.59 64.32h28.3v9.52h-28.3v9.32h33.53v9.59h-44.77V46.47h44.77v9.59h-33.53z"/>
      <path class="cls-1" d="M14.23 0h1.36c8.58 0 13.83 4.65 13.83 12.2h-7.64c0-3.57-2.35-5.74-6.19-5.74h-1.36c-4.11 0-6.64 3.8-6.64 10s2.53 10 6.64 10h1.36c3.84 0 6.19-2.17 6.19-5.74h7.64c0 7.54-5.25 12.2-13.83 12.2h-1.36C5.42 33 0 26.71 0 16.49S5.42 0 14.23 0z"/>
      <path class="cls-1" d="M37.52.68h7.23v31.63h-7.23z"/>
      <path class="cls-1" d="M66.16 0h1.35c8.59 0 13.83 4.65 13.83 12.2H73.7c0-3.57-2.35-5.74-6.19-5.74h-1.35c-4.12 0-6.65 3.8-6.65 10s2.53 10 6.65 10h1.35c3.84 0 6.19-2.17 6.19-5.74h7.64c0 7.54-5.24 12.2-13.83 12.2h-1.35C57.34 33 52 26.71 52 16.49S57.34 0 66.16 0z"/>
      <path class="cls-1" d="M89.44.68h7.24V26h11.61v6.33H89.44z"/>
      <path class="cls-1" d="M127.7 0c9.36 0 15.37 6.28 15.37 16.49S137.06 33 127.7 33h-1.35C117 33 111 26.71 111 16.49S117 0 126.35 0zm0 26.53c4.66 0 7.82-3.8 7.82-10s-3.16-10-7.82-10h-1.35c-4.66 0-7.82 3.84-7.82 10s3.16 10 7.82 10z"/>
      <path class="cls-1" d="M158 13.83h19.74v6.5H158v12h-7.69V.68h30.6v6.55H158z"/>
      <path class="cls-1" d="M194.38 13.78h11.17v6.33h-11.17v12.2h-7.23V.68h20.65V7h-13.42z"/>
      <path class="cls-1" d="M214.11.68h7.23v31.63h-7.23z"/>
      <path class="cls-1" d="M242.75 0h1.35c8.59 0 13.83 4.65 13.83 12.2h-7.64c0-3.57-2.35-5.74-6.19-5.74h-1.35c-4.12 0-6.65 3.8-6.65 10s2.53 10 6.65 10h1.35c3.84 0 6.19-2.17 6.19-5.74h7.64c0 7.54-5.24 12.2-13.83 12.2h-1.35c-8.81 0-14.2-6.28-14.2-16.5S233.94 0 242.75 0z"/>
      <path class="cls-1" d="M266 .68h7.23v31.63H266z"/>
      <path class="cls-1" d="M350.07 32.31h-7.59L290 8.31v24h-7.69V.68h7.55l52.56 24.08V.68h7.68z"/>
      <path class="cls-1" d="M364.38 26.93l-1.72 5.38H355L366.27.68h8.14l11.75 31.63h-7.68l-1.81-5.38zM370.43 8l-4.06 12.83h8.26z"/>
      <path class="cls-1" d="M26.37 106.23h8.47c16.8 0 25.13 5.54 25.07 16.74H48.25c.07-4.82-5.14-7.29-15.37-7.29h-4.56c-11 0-16.8 4.94-16.8 14.52s5.8 14.52 16.8 14.52h4.56c10.1 0 15.31-2.93 15.37-8.66l-22.85-.13v-8.14h34.51v8c0 12.11-8.47 18.36-25.07 18.36h-8.47C8.92 154.16 0 146 0 130.2s8.92-23.97 26.37-23.97z"/>
      <path class="cls-1" d="M71.67 107.41h10.42V153H71.67z"/>
      <path class="cls-1" d="M110.23 145.31l-7.36 7.69H89.26l43.11-45.58h11.85L187.78 153h-13.54l-7.55-7.68zm28.07-29.11l-19.15 19.92h38.55z"/>
      <path class="cls-1" d="M195 107.41h11.07v36.14h28.45V153H195z"/>
      <path class="cls-1" d="M243 107.41h11.07v36.14h28.46V153H243z"/>
      <path class="cls-1" d="M386.12 130.2c0 15.63-9 24-26.38 24h-44.93c-17.38 0-26.37-8.33-26.37-24H300c0 9.18 5.72 14.26 16.79 14.26h41c11.07 0 16.8-5.08 16.8-14.26z"/>
      <path class="cls-2" d="M288.44 130.2c0-15.63 9-24 26.37-24h44.93c17.39 0 26.38 8.34 26.38 24h-11.53c0-9.18-5.73-14.26-16.8-14.26h-41c-11.1 0-16.79 5.06-16.79 14.26z"/>
    </g>
  </g>
</svg>
