<svg xmlns="http://www.w3.org/2000/svg" viewBox="0 0 386.16 154.16"><defs><style>.cls-1{fill:#210b00;}.cls-2{fill:#fc0;}</style></defs><title>Asset 1</title><g id="Layer_2" data-name="Layer 2"><g id="Livello_1" data-name="Livello 1"><path class="cls-1" d="M0,92.75V46.47H81c11.11,0,18.19,6.68,18.19,17.06,0,10.84-7.08,17.65-18.19,17.65H11.24l.13,11.57ZM81,71.53c4,0,6.35-2.51,6.35-7.87,0-5.09-2.24-7.54-6.35-7.54H11.24V71.53Z"/><path class="cls-1" d="M141.88,45.28c17.73,0,26.78,8.26,26.78,24.33s-9,24.33-26.78,24.33h-8.59c-17.72,0-26.78-8.26-26.78-24.33s9.06-24.33,26.78-24.33Zm-2,39.08c11.17-.07,17.06-5,17.06-14.75s-5.89-14.74-17.06-14.74h-4.63c-11.17,0-17.05,5-17.05,14.74s5.88,14.68,17.05,14.75Z"/><path class="cls-1" d="M278.46,92.75H267.35L190.52,57.64V92.75H179.28V46.47h11l76.89,35.24V46.47h11.25Z"/><path class="cls-1" d="M304.3,56.06H286.45V46.47h46.94v9.59H315.54V92.75H304.3Z"/><path class="cls-1" d="M352.59,64.32h28.3v9.52h-28.3v9.32h33.53v9.59H341.35V46.47h44.77v9.59H352.59Z"/><path class="cls-1" d="M14.23,0h1.36c8.58,0,13.83,4.65,13.83,12.2H21.78c0-3.57-2.35-5.74-6.19-5.74H14.23c-4.11,0-6.64,3.8-6.64,10s2.53,10,6.64,10h1.36c3.84,0,6.19-2.17,6.19-5.74h7.64c0,7.54-5.25,12.2-13.83,12.2H14.23C5.42,33,0,26.71,0,16.49S5.42,0,14.23,0Z"/><path class="cls-1" d="M37.52.68h7.23V32.31H37.52Z"/><path class="cls-1" d="M66.16,0h1.35C76.1,0,81.34,4.65,81.34,12.2H73.7c0-3.57-2.35-5.74-6.19-5.74H66.16c-4.12,0-6.65,3.8-6.65,10s2.53,10,6.65,10h1.35c3.84,0,6.19-2.17,6.19-5.74h7.64c0,7.54-5.24,12.2-13.83,12.2H66.16C57.34,33,52,26.71,52,16.49S57.34,0,66.16,0Z"/><path class="cls-1" d="M89.44.68h7.24V26h11.61v6.33H89.44Z"/><path class="cls-1" d="M127.7,0c9.36,0,15.37,6.28,15.37,16.49S137.06,33,127.7,33h-1.35C117,33,111,26.71,111,16.49S117,0,126.35,0Zm0,26.53c4.66,0,7.82-3.8,7.82-10s-3.16-10-7.82-10h-1.35c-4.66,0-7.82,3.84-7.82,10s3.16,10,7.82,10Z"/><path class="cls-1" d="M158,13.83h19.74v6.5H158v12h-7.69V.68h30.6V7.23H158Z"/><path class="cls-1" d="M194.38,13.78h11.17v6.33H194.38v12.2h-7.23V.68H207.8V7H194.38Z"/><path class="cls-1" d="M214.11.68h7.23V32.31h-7.23Z"/><path class="cls-1" d="M242.75,0h1.35c8.59,0,13.83,4.65,13.83,12.2h-7.64c0-3.57-2.35-5.74-6.19-5.74h-1.35c-4.12,0-6.65,3.8-6.65,10s2.53,10,6.65,10h1.35c3.84,0,6.19-2.17,6.19-5.74h7.64c0,7.54-5.24,12.2-13.83,12.2h-1.35c-8.81,0-14.2-6.28-14.2-16.5S233.94,0,242.75,0Z"/><path class="cls-1" d="M266,.68h7.23V32.31H266Z"/><path class="cls-1" d="M350.07,32.31h-7.59L290,8.31v24h-7.69V.68h7.55l52.56,24.08V.68h7.68Z"/><path class="cls-1" d="M364.38,26.93l-1.72,5.38H355L366.27.68h8.14l11.75,31.63h-7.68l-1.81-5.38ZM370.43,8l-4.06,12.83h8.26Z"/><path class="cls-1" d="M26.37,106.23h8.47c16.8,0,25.13,5.54,25.07,16.74H48.25c.07-4.82-5.14-7.29-15.37-7.29H28.32c-11,0-16.8,4.94-16.8,14.52s5.8,14.52,16.8,14.52h4.56c10.1,0,15.31-2.93,15.37-8.66l-22.85-.13v-8.14H59.91v8c0,12.11-8.47,18.36-25.07,18.36H26.37C8.92,154.16,0,146,0,130.2S8.92,106.23,26.37,106.23Z"/><path class="cls-1" d="M71.67,107.41H82.09V153H71.67Z"/><path class="cls-1" d="M110.23,145.31,102.87,153H89.26l43.11-45.58h11.85L187.78,153H174.24l-7.55-7.68ZM138.3,116.2l-19.15,19.92H157.7Z"/><path class="cls-1" d="M195,107.41h11.07v36.14h28.45V153H195Z"/><path class="cls-1" d="M243,107.41h11.07v36.14h28.46V153H243Z"/><path class="cls-1" d="M386.12,130.2c0,15.63-9,24-26.38,24H314.81c-17.38,0-26.37-8.33-26.37-24H300c0,9.18,5.72,14.26,16.79,14.26h41c11.07,0,16.8-5.08,16.8-14.26Z"/><path class="cls-2" d="M288.44,130.2c0-15.63,9-24,26.37-24h44.93c17.39,0,26.38,8.34,26.38,24H374.59c0-9.18-5.73-14.26-16.8-14.26h-41C305.69,115.94,300,121,300,130.2Z"/></g></g></svg>